<svg width="269" height="69" viewBox="0 0 269 69" fill="none" xmlns="http://www.w3.org/2000/svg">
<path d="M253.449 61.4093V22.0611H229.853V14.4663H269V22.0611H261.478V61.4093H253.449Z" fill="#E3271B"/>
<path d="M163.099 60.8949V13.9519H175.829C179.349 13.9519 182.073 14.4823 184.002 15.5432C185.931 16.5558 187.209 18.1953 187.836 20.4617C188.125 21.4261 188.318 22.6075 188.414 24.0059C188.511 25.4044 188.559 26.7304 188.559 27.9842C188.559 29.2379 188.559 30.1541 188.559 30.7328C188.559 32.6616 188.463 34.5181 188.27 36.3023C188.077 38.0864 187.522 39.6536 186.606 41.0038C185.69 42.3058 184.147 43.2702 181.977 43.8971L188.631 60.8949H179.952L173.587 44.6927H171.2V60.8949H163.099ZM171.2 37.0979C173.418 37.0979 175.154 37.0497 176.407 36.9533C177.709 36.8568 178.65 36.6157 179.228 36.2299C179.807 35.7959 180.169 35.145 180.313 34.277C180.458 33.3608 180.53 32.0829 180.53 30.4434C180.53 30.0094 180.53 29.2861 180.53 28.2735C180.53 27.2609 180.458 26.2241 180.313 25.1633C180.169 24.0542 179.855 23.2344 179.373 22.704C178.602 21.9325 177.42 21.5467 175.829 21.5467H171.2V37.0979Z" fill="#E3271B"/>
<path d="M146.291 60.8948C141.614 60.8948 138.335 60.0027 136.454 58.2186C134.573 56.3862 133.633 53.3 133.633 48.9602V14.0242H141.734L141.951 48.9602V49.3218C141.951 49.7076 141.951 50.1416 141.951 50.6238C141.999 51.106 142.096 51.5159 142.24 51.8534H142.168C142.409 52.2392 142.94 52.5526 143.759 52.7937C144.579 53.0348 145.471 53.1554 146.436 53.1554C147.448 53.1554 148.389 53.0107 149.257 52.7214C150.173 52.3839 150.679 51.9499 150.776 51.4194L150.92 14.0242H158.949V46.6456C158.949 48.9602 158.828 51.0096 158.587 52.7937C158.346 54.5779 157.816 56.0727 156.996 57.2783C156.225 58.4356 154.971 59.3277 153.235 59.9545C151.547 60.5814 149.233 60.8948 146.291 60.8948Z" fill="#E3271B"/>
<path d="M105.633 60.8949V50.8409C105.633 46.3563 105.825 42.0647 106.211 37.9659C106.645 33.8189 107.561 29.7683 108.96 25.8142C110.406 21.8601 112.625 17.906 115.614 13.9519H120.822C123.86 17.8578 126.102 21.836 127.549 25.8866C128.996 29.8889 129.912 33.9636 130.298 38.1105C130.732 42.2575 130.949 46.501 130.949 50.8409V60.8949H122.847V51.6365H113.661V60.8949H105.633ZM113.661 44.0417H122.775C122.582 40.6663 122.124 37.2908 121.401 33.9153C120.677 30.5399 119.617 27.3814 118.218 24.4399C116.772 27.4779 115.687 30.6604 114.963 33.9877C114.24 37.3149 113.806 40.6663 113.661 44.0417Z" fill="#E3271B"/>
<path d="M90.1626 60.8949V21.5467H82.6401V13.9519H105.714V21.5467H98.1914V60.8949H90.1626Z" fill="#E3271B"/>
<path fill-rule="evenodd" clip-rule="evenodd" d="M29.5225 13.9519V60.8949H52.3791V60.8949H68.9448C73.6704 60.8949 76.9494 60.0028 78.7818 58.2186C80.6624 56.3862 81.6028 53.3001 81.6028 48.9602V47.3689C81.6028 45.199 81.5304 43.2219 81.3858 41.4377C81.2411 39.6053 80.783 38.0382 80.0115 36.7362C79.2882 35.386 78.0585 34.3493 76.3226 33.626C74.5866 32.8544 72.1273 32.4687 68.9448 32.4687C67.6428 32.4687 66.6061 32.3963 65.8345 32.2517C65.1112 32.0588 64.7255 31.89 64.6772 31.7453C64.4361 31.0703 64.2915 30.4675 64.2432 29.9371V28.7074L64.3156 27.0438V25.8865C64.3156 24.5363 64.3879 23.5719 64.5326 22.9933C64.7255 22.3664 65.1353 21.9806 65.7622 21.836C66.4373 21.6913 67.4981 21.619 68.9448 21.619C70.3914 21.619 71.4282 21.6913 72.055 21.836C72.7301 21.9324 73.14 22.3182 73.2846 22.9933C73.4293 23.6201 73.5016 24.7051 73.5016 26.2482H81.6028C81.6028 21.9083 80.6624 18.7981 78.7818 16.9174C76.9494 14.9886 73.6704 14.0242 68.9448 14.0242C64.2673 14.0242 60.9883 14.9404 59.1077 16.7728C57.2271 18.5569 56.2868 21.5949 56.2868 25.8865C56.2868 28.2011 56.3832 30.2505 56.5761 32.0347C56.8172 33.7706 57.3477 35.2414 58.1674 36.4469C58.9872 37.6524 60.2409 38.5686 61.9286 39.1955C63.6646 39.8223 66.0033 40.1358 68.9448 40.1358H69.2341C69.9574 40.1358 70.7531 40.2081 71.621 40.3528C72.5372 40.4492 73.0918 40.7144 73.2846 41.1484C73.4775 42.1128 73.574 42.9326 73.574 43.6077C73.6222 44.2828 73.6463 44.7891 73.6463 45.1266L73.574 47.0072V48.0199L73.5016 48.9602V49.7558C73.5016 50.8167 73.4293 51.5882 73.2846 52.0704C73.14 52.5044 72.7783 52.7938 72.1997 52.9384C71.6693 53.0349 70.8013 53.1313 69.5958 53.2277H68.3661H52.2393C52.1961 53.1846 52.1536 53.1879 52.112 53.2278H51.8375H37.6236V40.1358H48.0393V32.4687H37.6236V21.5467H52.3791V13.9519H29.5225Z" fill="#E3271B"/>
<path d="M0 60.8949V13.9519H12.7303C16.2504 13.9519 18.9749 14.4823 20.9037 15.5432C22.8326 16.5558 24.1104 18.1953 24.7373 20.4617C25.0266 21.4261 25.2195 22.6075 25.3159 24.0059C25.4124 25.4044 25.4606 26.7304 25.4606 27.9842C25.4606 29.2379 25.4606 30.1541 25.4606 30.7328C25.4606 32.6616 25.3642 34.5181 25.1713 36.3023C24.9784 38.0864 24.4239 39.6536 23.5077 41.0038C22.5915 42.3058 21.0484 43.2702 18.8785 43.8971L25.5329 60.8949H16.8532L10.488 44.6927H8.1011V60.8949H0ZM8.1011 37.0979C10.3193 37.0979 12.0552 37.0497 13.309 36.9533C14.6109 36.8568 15.5512 36.6157 16.1299 36.2299C16.7085 35.7959 17.0702 35.145 17.2148 34.277C17.3595 33.3608 17.4318 32.0829 17.4318 30.4434C17.4318 30.0094 17.4318 29.2861 17.4318 28.2735C17.4318 27.2609 17.3595 26.2241 17.2148 25.1633C17.0702 24.0542 16.7567 23.2344 16.2745 22.704C15.503 21.9325 14.3216 21.5467 12.7303 21.5467H8.1011V37.0979Z" fill="#E3271B"/>
<path d="M223.148 16.0852C223.512 17.8217 223.527 19.4665 223.193 21.0195C222.912 22.5616 222.372 24.048 221.573 25.4788C220.816 26.8459 219.884 28.1672 218.778 29.4426C217.724 30.7069 216.587 31.9615 215.364 33.2064L227.777 43.295C228.351 40.2636 228.646 37.3453 228.662 34.5404C228.679 31.7354 228.648 29.4897 228.569 27.8034L240.093 25.3892L241.086 30.1251L235.733 32.8943C235.442 35.7018 235.124 38.3777 234.778 40.922C234.474 43.4027 234.063 45.7684 233.546 48.0191L239.696 52.9928L248.078 52.8848L249.07 57.6207L236.678 60.2168L230.863 55.6671C229.609 58.0721 227.92 60.1015 225.794 61.7553C223.71 63.3454 220.985 64.4932 217.617 65.1987C214.46 65.8601 211.677 65.9487 209.268 65.4645C206.849 64.9277 204.795 64.0396 203.107 62.8002C201.419 61.5608 200.067 60.0863 199.049 58.3768C198.074 56.6037 197.393 54.7963 197.007 52.9545C196.61 51.0602 196.541 49.2893 196.8 47.642C197.112 45.9837 197.609 44.4239 198.292 42.9625C199.027 41.4902 199.922 40.1218 200.975 38.8574C202.07 37.5294 203.234 36.2693 204.468 35.0771C201.897 33.0338 199.755 31.0657 198.04 29.1728C196.325 27.2798 195.181 24.9652 194.608 22.2289C194.365 21.0712 194.247 19.7226 194.255 18.1831C194.314 16.6325 194.706 15.0947 195.43 13.5697C196.207 12.0337 197.423 10.6255 199.077 9.34509C200.732 8.0647 203.085 7.10481 206.137 6.46544C209.136 5.83709 211.651 5.77728 213.68 6.28602C215.75 6.73112 217.444 7.47489 218.761 8.51733C220.078 9.55978 221.075 10.7791 221.752 12.1754C222.429 13.5716 222.895 14.8749 223.148 16.0852ZM216.165 58.6638C218.323 58.2118 220.118 57.3414 221.551 56.0525C223.025 54.6999 224.229 53.102 225.161 51.2588L209.597 39.111C207.959 40.9923 206.67 42.9653 205.729 45.0301C204.777 47.0422 204.56 49.2848 205.078 51.758C205.387 53.2314 205.894 54.4711 206.599 55.4769C207.357 56.4717 208.234 57.2493 209.23 57.8096C210.226 58.3699 211.316 58.7185 212.498 58.8554C213.68 58.9922 214.903 58.9284 216.165 58.6638ZM202.675 20.6212C203.105 22.6734 204.044 24.3995 205.49 25.7992C206.937 27.199 208.52 28.4605 210.238 29.5836C212.004 27.7855 213.437 25.9746 214.538 24.151C215.681 22.2637 216.021 20.215 215.558 18.0048C215.183 16.2157 214.311 14.8054 212.941 13.774C211.624 12.7316 209.861 12.4418 207.651 12.9048C205.44 13.3678 203.973 14.3618 203.249 15.8868C202.514 17.3592 202.323 18.9373 202.675 20.6212Z" fill="#E3271B"/>
</svg>
