<svg width="131" height="86" viewBox="0 0 131 86" fill="none" xmlns="http://www.w3.org/2000/svg">
<path d="M111.421 76.41V27.45H82.0605V18H130.771V27.45H121.411V76.41H111.421Z" fill="#C32C23"/>
<path d="M0 76.41V18H15.84C20.22 18 23.61 18.66 26.01 19.98C28.41 21.24 30 23.28 30.78 26.1C31.14 27.3 31.38 28.77 31.5 30.51C31.62 32.25 31.68 33.9 31.68 35.46C31.68 37.02 31.68 38.16 31.68 38.88C31.68 41.28 31.56 43.59 31.32 45.81C31.08 48.03 30.39 49.98 29.25 51.66C28.11 53.28 26.19 54.48 23.49 55.26L31.77 76.41H20.97L13.05 56.25H10.08V76.41H0ZM10.08 46.8C12.84 46.8 15 46.74 16.56 46.62C18.18 46.5 19.35 46.2 20.07 45.72C20.79 45.18 21.24 44.37 21.42 43.29C21.6 42.15 21.69 40.56 21.69 38.52C21.69 37.98 21.69 37.08 21.69 35.82C21.69 34.56 21.6 33.27 21.42 31.95C21.24 30.57 20.85 29.55 20.25 28.89C19.29 27.93 17.82 27.45 15.84 27.45H10.08V46.8Z" fill="#C32C23"/>
<path d="M73.7183 20.0143C74.171 22.175 74.1896 24.2216 73.7742 26.154C73.4244 28.0728 72.7524 29.9223 71.7584 31.7025C70.8161 33.4036 69.6568 35.0476 68.2805 36.6346C66.9697 38.2078 65.5538 39.7689 64.0329 41.3178L79.4781 53.8709C80.1916 50.0989 80.5587 46.4678 80.5794 42.9777C80.6001 39.4875 80.5615 36.6933 80.4637 34.595L94.8029 31.5911L96.0374 37.4839L89.3775 40.9295C89.0157 44.4228 88.6196 47.7523 88.1892 50.9182C87.8106 54.0049 87.2995 56.9485 86.6559 59.7489L94.3088 65.9375L104.738 65.8032L105.973 71.696L90.553 74.9262L83.3182 69.2652C81.7579 72.2577 79.6555 74.7828 77.0108 76.8405C74.4179 78.819 71.0263 80.2472 66.8358 81.125C62.9073 81.948 59.4445 82.0583 56.4477 81.4558C53.4371 80.7879 50.8817 79.6828 48.7815 78.1406C46.6814 76.5985 44.9984 74.7639 43.7326 72.6368C42.5186 70.4306 41.6716 68.1816 41.1915 65.89C40.6977 63.5328 40.612 61.3294 40.9345 59.2797C41.3224 57.2163 41.9411 55.2755 42.7904 53.4572C43.7053 51.6251 44.8181 49.9225 46.1289 48.3493C47.4915 46.6968 48.9401 45.1289 50.4747 43.6455C47.2765 41.1031 44.6105 38.6542 42.4767 36.2989C40.3429 33.9436 38.9194 31.0635 38.2061 27.6588C37.9044 26.2183 37.7579 24.5403 37.7667 22.6247C37.8409 20.6953 38.3286 18.7819 39.2298 16.8844C40.1964 14.9732 41.7089 13.221 43.7674 11.6278C45.8259 10.0346 48.7539 8.84029 52.5515 8.04473C56.2836 7.26289 59.4121 7.18848 61.9369 7.82148C64.5135 8.37531 66.6212 9.30076 68.2599 10.5978C69.8986 11.8949 71.1391 13.4121 71.9815 15.1494C72.8239 16.8867 73.4029 18.5084 73.7183 20.0143ZM65.0299 72.9939C67.7144 72.4315 69.9481 71.3484 71.7309 69.7446C73.5655 68.0617 75.0628 66.0735 76.2227 63.78L56.8575 48.6648C54.8189 51.0057 53.2144 53.4606 52.0439 56.0297C50.8596 58.5333 50.5898 61.3238 51.2345 64.4012C51.6186 66.2345 52.2493 67.7769 53.1266 69.0285C54.0694 70.2663 55.1606 71.2338 56.4003 71.931C57.6399 72.6282 58.9952 73.062 60.4662 73.2322C61.9373 73.4025 63.4585 73.3231 65.0299 72.9939ZM48.2445 25.6584C48.7794 28.2119 49.947 30.3596 51.7472 32.1013C53.5474 33.843 55.5166 35.4126 57.6548 36.8101C59.8517 34.5728 61.6352 32.3195 63.0053 30.0504C64.4271 27.7021 64.85 25.1529 64.2739 22.4029C63.8075 20.1767 62.7223 18.422 61.0181 17.1386C59.3794 15.8415 57.185 15.481 54.435 16.0571C51.6851 16.6332 49.8595 17.87 48.9584 19.7675C48.0435 21.5995 47.8056 23.5632 48.2445 25.6584Z" fill="#C32C23"/>
</svg>
