<svg width="19" height="19" viewBox="0 0 19 19" fill="none" xmlns="http://www.w3.org/2000/svg">
<path d="M7.93347 14.1154C4.50292 14.1154 1.72211 11.3346 1.72211 7.90408C1.72211 6.25644 2.37629 4.67754 3.5405 3.5111C6.00642 1.12502 9.93814 1.18933 12.3242 3.65303C14.5529 5.95369 14.6524 9.54756 12.623 11.9638L17.1385 16.4794C17.3115 16.6523 17.3115 16.934 17.1385 17.1069C17.0521 17.1912 16.9412 17.2378 16.8236 17.2378C16.7061 17.2378 16.593 17.1912 16.511 17.1069L12.0013 12.5972C10.8777 13.5761 9.43314 14.1195 7.93347 14.1154ZM7.93347 2.57973C4.993 2.57973 2.60913 4.9636 2.60913 7.90408C2.60913 9.31666 3.17017 10.6694 4.16807 11.6695C6.25479 13.7407 9.62769 13.7274 11.6989 11.6407C13.759 9.56503 13.759 6.21652 11.6989 4.14089C10.701 3.13634 9.34606 2.5753 7.93347 2.57973Z" fill="#4D505C"/>
</svg>
