<svg width="18" height="18" viewBox="0 0 18 18" fill="none" xmlns="http://www.w3.org/2000/svg">
<path d="M8.93994 7.125H10.4399V4.875H12.6899V3.375H10.4399V1.125H8.93994V3.375H6.68994V4.875H8.93994V7.125ZM5.93994 13.875C5.11494 13.875 4.44744 14.55 4.44744 15.375C4.44744 16.2 5.11494 16.875 5.93994 16.875C6.76494 16.875 7.43994 16.2 7.43994 15.375C7.43994 14.55 6.76494 13.875 5.93994 13.875ZM13.4399 13.875C12.6149 13.875 11.9474 14.55 11.9474 15.375C11.9474 16.2 12.6149 16.875 13.4399 16.875C14.2649 16.875 14.9399 16.2 14.9399 15.375C14.9399 14.55 14.2649 13.875 13.4399 13.875ZM6.76494 10.125H12.3524C12.9149 10.125 13.4099 9.8175 13.6649 9.3525L16.5599 4.095L15.2549 3.375L12.3524 8.625H7.08744L3.89244 1.875H1.43994V3.375H2.93994L5.63994 9.0675L4.62744 10.8975C4.07994 11.9025 4.79994 13.125 5.93994 13.125H14.9399V11.625H5.93994L6.76494 10.125Z" fill="white"/>
</svg>
